<svg width="149" height="32" viewBox="0 0 149 32" fill="none" xmlns="http://www.w3.org/2000/svg">
<g clip-path="url(#clip0_104_40)">
<path d="M13.7194 0.200012C17.2687 0.200012 20.0701 0.434679 22.1234 0.904013C24.2061 1.37334 25.7021 2.12134 26.6114 3.14801C27.5501 4.17467 28.0194 5.56801 28.0194 7.32801C28.0194 9.67467 27.3154 11.4053 25.9074 12.52C24.4994 13.6347 22.2554 14.3533 19.1754 14.676C21.6981 14.8813 23.7221 15.2773 25.2474 15.864C26.7727 16.4507 27.8874 17.316 28.5914 18.46C29.3247 19.5747 29.6914 21.056 29.6914 22.904C29.6914 24.9573 29.1341 26.5707 28.0194 27.744C26.9047 28.9173 25.174 29.7533 22.8274 30.252C20.5101 30.7507 17.3861 31 13.4554 31H0.211426V30.12L1.83942 29.768C2.27942 29.68 2.55809 29.5773 2.67542 29.46C2.82209 29.3427 2.89542 29.1227 2.89542 28.8V2.40001C2.89542 2.07734 2.82209 1.85734 2.67542 1.74001C2.55809 1.62268 2.27942 1.52001 1.83942 1.43201L0.211426 1.08001V0.200012H13.7194ZM14.0274 14.104C15.846 14.104 17.1954 13.5467 18.0754 12.432C18.9554 11.3173 19.3954 9.61601 19.3954 7.32801C19.3954 5.36268 18.9554 3.91068 18.0754 2.97201C17.2247 2.00401 15.8754 1.52001 14.0274 1.52001H11.8714V14.104H14.0274ZM11.8714 29.68H13.8514C18.3687 29.68 20.6274 27.4213 20.6274 22.904C20.6274 20.264 20.1581 18.3573 19.2194 17.184C18.2807 16.0107 16.6087 15.424 14.2034 15.424H11.8714V29.68ZM50.0097 12.256C50.0097 11.9333 49.9364 11.7133 49.7897 11.596C49.6724 11.4787 49.3937 11.376 48.9537 11.288L47.4137 10.936V10.144L58.0617 8.82401H58.8097V28.888C58.8097 29.2107 58.8684 29.4307 58.9857 29.548C59.1324 29.6653 59.4257 29.768 59.8657 29.856L61.4057 30.208V31H52.4737C51.623 31 51.007 30.824 50.6257 30.472C50.2737 30.0907 50.0977 29.504 50.0977 28.712V28.228C49.0417 29.1373 47.707 29.9147 46.0937 30.56C44.4804 31.2053 42.691 31.528 40.7257 31.528C37.9977 31.528 36.047 30.956 34.8737 29.812C33.7004 28.668 33.1137 26.952 33.1137 24.664V12.256C33.1137 11.9333 33.0404 11.7133 32.8937 11.596C32.7764 11.4787 32.4977 11.376 32.0577 11.288L30.5177 10.936V10.144L41.1657 8.82401H41.9137V25.456C41.9137 26.776 42.119 27.7147 42.5297 28.272C42.9697 28.8293 43.6884 29.108 44.6857 29.108C46.4457 29.108 48.2204 28.3747 50.0097 26.908V12.256ZM71.7298 19.736C71.7592 22.992 72.2725 25.4707 73.2698 27.172C74.2965 28.8733 76.2032 29.724 78.9898 29.724C80.3685 29.724 81.5858 29.5187 82.6418 29.108C83.7272 28.6973 84.8418 28.1107 85.9858 27.348L86.5578 28.184C83.8298 30.4133 80.2218 31.528 75.7338 31.528C71.6858 31.528 68.4885 30.56 66.1418 28.624C63.8245 26.6587 62.6658 23.7987 62.6658 20.044C62.6658 16.4947 63.8538 13.7813 66.2298 11.904C68.6058 10.0267 71.9352 9.08801 76.2178 9.08801C78.6525 9.08801 80.7058 9.46934 82.3778 10.232C84.0498 10.9947 85.2818 12.0213 86.0738 13.312C86.8952 14.5733 87.3058 15.9813 87.3058 17.536C87.3058 18.328 87.2325 19.0613 87.0858 19.736H71.7298ZM75.9538 10.144C74.3405 10.144 73.2405 10.8187 72.6538 12.168C72.0672 13.5173 71.7592 15.6587 71.7298 18.592H79.1218V15.292C79.1218 13.5027 78.9018 12.1973 78.4618 11.376C78.0512 10.5547 77.2152 10.144 75.9538 10.144ZM116.863 28.888C116.863 29.2107 116.921 29.4307 117.039 29.548C117.185 29.6653 117.479 29.768 117.919 29.856L119.459 30.208V31H110.307C109.515 31 108.943 30.7947 108.591 30.384C108.239 29.9733 108.063 29.3573 108.063 28.536V15.16C108.063 13.84 107.843 12.9013 107.403 12.344C106.992 11.7867 106.288 11.508 105.291 11.508C103.531 11.508 101.727 12.2413 99.8788 13.708V28.888C99.8788 29.2107 99.9374 29.4453 100.055 29.592C100.201 29.7093 100.48 29.812 100.891 29.9L102.387 30.208V31H88.4828V30.208L90.0228 29.856C90.4628 29.768 90.7414 29.6653 90.8588 29.548C91.0054 29.4307 91.0788 29.2107 91.0788 28.888V12.256C91.0788 11.9333 91.0054 11.7133 90.8588 11.596C90.7414 11.4787 90.4628 11.376 90.0228 11.288L88.4828 10.936V10.144L99.0428 8.82401H99.7908V12.388C100.905 11.4787 102.269 10.7013 103.883 10.056C105.496 9.41068 107.285 9.08801 109.251 9.08801C111.979 9.08801 113.929 9.66001 115.103 10.804C116.276 11.948 116.863 13.664 116.863 15.952V28.888ZM148.083 20.308C148.083 24.092 146.895 26.908 144.519 28.756C142.172 30.604 138.784 31.528 134.355 31.528C129.925 31.528 126.523 30.604 124.147 28.756C121.8 26.908 120.627 24.092 120.627 20.308C120.627 16.524 121.8 13.708 124.147 11.86C126.523 10.012 129.925 9.08801 134.355 9.08801C138.784 9.08801 142.172 10.012 144.519 11.86C146.895 13.708 148.083 16.524 148.083 20.308ZM129.779 20.308C129.779 22.9187 129.896 24.928 130.131 26.336C130.395 27.744 130.849 28.7707 131.495 29.416C132.14 30.0613 133.093 30.384 134.355 30.384C135.616 30.384 136.569 30.0613 137.215 29.416C137.86 28.7707 138.3 27.744 138.535 26.336C138.799 24.928 138.931 22.9187 138.931 20.308C138.931 17.6973 138.799 15.688 138.535 14.28C138.3 12.872 137.86 11.8453 137.215 11.2C136.569 10.5547 135.616 10.232 134.355 10.232C133.093 10.232 132.14 10.5547 131.495 11.2C130.849 11.8453 130.395 12.872 130.131 14.28C129.896 15.688 129.779 17.6973 129.779 20.308Z" fill="black"/>
</g>
<defs>
<clipPath id="clip0_104_40">
<rect width="149" height="32" fill="white"/>
</clipPath>
</defs>
</svg>
