<svg width="174" height="52" viewBox="0 0 174 52" fill="none" xmlns="http://www.w3.org/2000/svg">
<g clip-path="url(#clip0_104_44)">
<path d="M174 0.5H0V51.5H174V0.5Z" fill="black"/>
<path d="M16.9765 26.0856C16.9765 27.2104 17.2399 28.1885 17.7667 29.0199C18.2935 29.8514 18.9903 30.4953 19.8569 30.9517C20.7236 31.3919 21.6668 31.612 22.6864 31.612C23.9439 31.612 25.0145 31.3837 25.8982 30.9273C26.7988 30.4708 27.5466 29.9166 28.1413 29.2645V33.2259C27.4106 33.7801 26.6204 34.2121 25.7707 34.5219C24.921 34.8316 23.842 34.9865 22.5334 34.9865C21.157 34.9865 19.8824 34.7746 18.7099 34.3507C17.5543 33.9106 16.5517 33.2992 15.702 32.5167C14.8523 31.7342 14.1896 30.7969 13.7137 29.7046C13.2379 28.6124 13 27.406 13 26.0856C13 24.7651 13.2379 23.5588 13.7137 22.4665C14.1896 21.3743 14.8523 20.4369 15.702 19.6544C16.5517 18.8719 17.5543 18.2688 18.7099 17.8449C19.8824 17.4048 21.157 17.1847 22.5334 17.1847C23.842 17.1847 24.921 17.3396 25.7707 17.6493C26.6204 17.9427 27.4106 18.3747 28.1413 18.9453V22.9067C27.5466 22.2383 26.7988 21.684 25.8982 21.2439C25.0145 20.7874 23.9439 20.5592 22.6864 20.5592C21.6668 20.5592 20.7236 20.7874 19.8569 21.2439C18.9903 21.684 18.2935 22.3198 17.7667 23.1512C17.2399 23.9663 16.9765 24.9444 16.9765 26.0856Z" fill="#F9E0E2"/>
<path d="M30.7236 26.0856C30.7236 24.7814 30.9616 23.5914 31.4374 22.5154C31.9132 21.4232 32.576 20.4858 33.4256 19.7033C34.2923 18.9045 35.2949 18.2851 36.4335 17.8449C37.5721 17.4048 38.8126 17.1847 40.1551 17.1847C41.5146 17.1847 42.7637 17.4048 43.9022 17.8449C45.0408 18.2851 46.0349 18.9045 46.8846 19.7033C47.7513 20.4858 48.414 21.4232 48.8729 22.5154C49.3487 23.5914 49.5866 24.7814 49.5866 26.0856C49.5866 27.3734 49.3487 28.5716 48.8729 29.6802C48.414 30.7724 47.7598 31.7261 46.9101 32.5412C46.0774 33.34 45.0833 33.9676 43.9277 34.4241C42.7891 34.8642 41.5316 35.0843 40.1551 35.0843C38.7786 35.0843 37.5126 34.8642 36.357 34.4241C35.2185 33.9676 34.2243 33.34 33.3747 32.5412C32.542 31.7261 31.8877 30.7724 31.4119 29.6802C30.9531 28.5716 30.7236 27.3734 30.7236 26.0856ZM34.5982 26.0856C34.5982 27.1778 34.8276 28.1478 35.2864 28.9955C35.7623 29.8432 36.4165 30.5116 37.2492 31.0006C38.0989 31.4734 39.0675 31.7098 40.1551 31.7098C41.2597 31.7098 42.2284 31.4734 43.061 31.0006C43.8937 30.5116 44.5395 29.8432 44.9983 28.9955C45.4741 28.1478 45.712 27.1778 45.712 26.0856C45.712 24.9934 45.4826 24.0234 45.0238 23.1757C44.565 22.328 43.9192 21.6677 43.0865 21.195C42.2538 20.7059 41.2767 20.4614 40.1551 20.4614C39.0675 20.4614 38.0989 20.7059 37.2492 21.195C36.4165 21.6677 35.7623 22.328 35.2864 23.1757C34.8276 24.0234 34.5982 24.9934 34.5982 26.0856Z" fill="#F9E0E2"/>
<path d="M65.0736 17.527H68.6167V35.5L55.9735 24.0804V34.6441H52.4048V16.6712L65.0736 28.0907V17.527Z" fill="#F9E0E2"/>
<path d="M70.6841 20.7059V17.527H83.9646V20.7059H79.1469V34.6441H75.4763V20.7059H70.6841Z" fill="#F9E0E2"/>
<path d="M95.5533 34.6441L93.6925 30.7806H87.5748L85.7395 34.6441H81.5845L90.6336 16.5L99.7083 34.6441H95.5533ZM90.6336 23.1023L88.4415 27.9929H92.8258L90.6336 23.1023Z" fill="#F9E0E2"/>
<path d="M101.643 17.527H105.365V34.6441H101.643V17.527Z" fill="#F9E0E2"/>
<path d="M121.879 17.527H125.423V35.5L112.779 24.0804V34.6441H109.211V16.6712L121.879 28.0907V17.527Z" fill="#F9E0E2"/>
<path d="M129.274 17.527H140.643V20.5103H132.843V24.1049H140.133V27.0148H132.843V31.6609H140.643V34.6441H129.274V17.527Z" fill="#F9E0E2"/>
<path d="M144.235 17.527H150.251C151.661 17.527 152.859 17.7634 153.845 18.2362C154.848 18.6926 155.612 19.3284 156.139 20.1435C156.666 20.9586 156.929 21.9123 156.929 23.0045C156.929 24.2109 156.607 25.2542 155.961 26.1345C155.315 26.9985 154.38 27.6261 153.157 28.0174L158 34.6441H153.641L149.486 28.4331H147.906V34.6441H144.235V17.527ZM150.021 20.5592H147.906V25.6454H150.021C150.973 25.6454 151.729 25.4254 152.29 24.9852C152.851 24.5287 153.131 23.9011 153.131 23.1023C153.131 22.2872 152.851 21.6596 152.29 21.2194C151.729 20.7793 150.973 20.5592 150.021 20.5592Z" fill="#F9E0E2"/>
</g>
<defs>
<clipPath id="clip0_104_44">
<rect width="174" height="52" fill="white"/>
</clipPath>
</defs>
</svg>
