<svg width="164" height="68" viewBox="0 0 164 68" fill="none" xmlns="http://www.w3.org/2000/svg">
<path d="M2.56562 28H0.265625V26H7.06562V28H4.76562V40H2.56562V28ZM8.13078 26H10.3307V31.7H12.6907V26H14.8907V40H12.6907V33.7H10.3307V40H8.13078V26ZM16.5292 26H22.5292V28H18.7292V31.7H21.7492V33.7H18.7292V38H22.5292V40H16.5292V26Z" fill="black"/>
<path d="M29.2651 14.4H36.8011L40.1611 38.448H40.2571L43.6171 14.4H51.1531V48H46.1611V22.56H46.0651L42.2251 48H37.8091L33.9691 22.56H33.8731V48H29.2651V14.4ZM62.7732 48.48C60.2132 48.48 58.2612 47.76 56.9172 46.32C55.5732 44.848 54.9012 42.752 54.9012 40.032V14.4H60.1812V40.416C60.1812 41.568 60.4052 42.4 60.8532 42.912C61.3332 43.424 62.0052 43.68 62.8692 43.68C63.7332 43.68 64.3892 43.424 64.8372 42.912C65.3172 42.4 65.5572 41.568 65.5572 40.416V14.4H70.6452V40.032C70.6452 42.752 69.9732 44.848 68.6292 46.32C67.2852 47.76 65.3332 48.48 62.7732 48.48ZM81.2697 48.48C78.7097 48.48 76.7737 47.76 75.4617 46.32C74.1497 44.848 73.4937 42.752 73.4937 40.032V38.112H78.4857V40.416C78.4857 42.592 79.3977 43.68 81.2217 43.68C82.1177 43.68 82.7897 43.424 83.2377 42.912C83.7177 42.368 83.9577 41.504 83.9577 40.32C83.9577 38.912 83.6377 37.68 82.9977 36.624C82.3577 35.536 81.1737 34.24 79.4457 32.736C77.2697 30.816 75.7497 29.088 74.8857 27.552C74.0217 25.984 73.5897 24.224 73.5897 22.272C73.5897 19.616 74.2617 17.568 75.6057 16.128C76.9497 14.656 78.9017 13.92 81.4617 13.92C83.9897 13.92 85.8937 14.656 87.1737 16.128C88.4857 17.568 89.1417 19.648 89.1417 22.368V23.76H84.1497V22.032C84.1497 20.88 83.9257 20.048 83.4777 19.536C83.0297 18.992 82.3737 18.72 81.5097 18.72C79.7497 18.72 78.8697 19.792 78.8697 21.936C78.8697 23.152 79.1897 24.288 79.8297 25.344C80.5017 26.4 81.7017 27.68 83.4297 29.184C85.6377 31.104 87.1577 32.848 87.9897 34.416C88.8217 35.984 89.2377 37.824 89.2377 39.936C89.2377 42.688 88.5497 44.8 87.1737 46.272C85.8297 47.744 83.8617 48.48 81.2697 48.48ZM96.3931 19.2H90.8731V14.4H107.193V19.2H101.673V48H96.3931V19.2ZM111.626 14.4H118.778L124.25 48H118.97L118.01 41.328V41.424H112.01L111.05 48H106.154L111.626 14.4ZM117.386 36.864L115.034 20.256H114.938L112.634 36.864H117.386ZM126.812 14.4H134.636C137.356 14.4 139.34 15.04 140.588 16.32C141.836 17.568 142.46 19.504 142.46 22.128V24.192C142.46 27.68 141.308 29.888 139.004 30.816V30.912C140.284 31.296 141.18 32.08 141.692 33.264C142.236 34.448 142.508 36.032 142.508 38.016V43.92C142.508 44.88 142.54 45.664 142.604 46.272C142.668 46.848 142.828 47.424 143.084 48H137.708C137.516 47.456 137.388 46.944 137.324 46.464C137.26 45.984 137.228 45.12 137.228 43.872V37.728C137.228 36.192 136.972 35.12 136.46 34.512C135.98 33.904 135.132 33.6 133.916 33.6H132.092V48H126.812V14.4ZM134.012 28.8C135.068 28.8 135.852 28.528 136.364 27.984C136.908 27.44 137.18 26.528 137.18 25.248V22.656C137.18 21.44 136.956 20.56 136.508 20.016C136.092 19.472 135.42 19.2 134.492 19.2H132.092V28.8H134.012ZM146.171 14.4H154.235C156.859 14.4 158.827 15.104 160.139 16.512C161.451 17.92 162.107 19.984 162.107 22.704V39.696C162.107 42.416 161.451 44.48 160.139 45.888C158.827 47.296 156.859 48 154.235 48H146.171V14.4ZM154.139 43.2C155.003 43.2 155.659 42.944 156.107 42.432C156.587 41.92 156.827 41.088 156.827 39.936V22.464C156.827 21.312 156.587 20.48 156.107 19.968C155.659 19.456 155.003 19.2 154.139 19.2H151.451V43.2H154.139Z" fill="black"/>
</svg>
