<svg width="58" height="58" viewBox="0 0 58 58" fill="none" xmlns="http://www.w3.org/2000/svg">
<g clip-path="url(#clip0_104_60)">
<path d="M19.5971 27.4C18.1746 27.4 16.8884 27.1564 15.7387 26.6692C14.6084 26.1821 13.712 25.4805 13.0494 24.5646C12.3869 23.6487 12.0459 22.5672 12.0264 21.32H16.411C16.4694 22.1579 16.7618 22.8205 17.2879 23.3077C17.8335 23.7949 18.5741 24.0385 19.5094 24.0385C20.4643 24.0385 21.2146 23.8144 21.7602 23.3662C22.3059 22.8985 22.5787 22.2944 22.5787 21.5538C22.5787 20.9497 22.3935 20.4528 22.0233 20.0631C21.653 19.6733 21.1853 19.3713 20.6202 19.1569C20.0746 18.9231 19.3146 18.6697 18.3402 18.3969C17.0151 18.0072 15.9335 17.6272 15.0956 17.2569C14.2771 16.8672 13.5659 16.2923 12.9618 15.5323C12.3771 14.7528 12.0848 13.72 12.0848 12.4338C12.0848 11.2256 12.3869 10.1733 12.991 9.27692C13.5951 8.38051 14.4428 7.69846 15.5341 7.23077C16.6253 6.74359 17.8725 6.5 19.2756 6.5C21.3802 6.5 23.0853 7.01641 24.391 8.04923C25.7161 9.06256 26.4469 10.4851 26.5833 12.3169H22.0818C22.0428 11.6154 21.7407 11.0405 21.1756 10.5923C20.63 10.1246 19.8992 9.89077 18.9833 9.89077C18.1843 9.89077 17.5412 10.0954 17.0541 10.5046C16.5864 10.9138 16.3525 11.5082 16.3525 12.2877C16.3525 12.8333 16.5279 13.2913 16.8787 13.6615C17.2489 14.0123 17.6971 14.3046 18.2233 14.5385C18.7689 14.7528 19.5289 15.0062 20.5033 15.2985C21.8284 15.6882 22.91 16.0779 23.7479 16.4677C24.5859 16.8574 25.3069 17.4421 25.911 18.2215C26.5151 19.001 26.8171 20.0241 26.8171 21.2908C26.8171 22.3821 26.5346 23.3954 25.9694 24.3308C25.4043 25.2662 24.5761 26.0164 23.4848 26.5815C22.3935 27.1272 21.0976 27.4 19.5971 27.4Z" fill="black"/>
<path d="M33.9351 6.79297V19.4207C33.9351 20.8043 34.2956 21.8663 35.0166 22.6068C35.7376 23.3278 36.751 23.6884 38.0566 23.6884C39.3817 23.6884 40.4048 23.3278 41.1259 22.6068C41.8469 21.8663 42.2074 20.8043 42.2074 19.4207V6.79297H46.3289V19.3914C46.3289 21.1258 45.9489 22.5971 45.1889 23.8053C44.4484 24.994 43.4448 25.8904 42.1782 26.4945C40.931 27.0986 39.5376 27.4007 37.9982 27.4007C36.4782 27.4007 35.0946 27.0986 33.8474 26.4945C32.6197 25.8904 31.6453 24.994 30.9243 23.8053C30.2033 22.5971 29.8428 21.1258 29.8428 19.3914V6.79297H33.9351Z" fill="black"/>
<path d="M38.6546 29.8852C40.0772 29.8852 41.3633 30.1287 42.5131 30.6159C43.6433 31.1031 44.5397 31.8046 45.2023 32.7205C45.8649 33.6364 46.2059 34.718 46.2254 35.9652H41.8408C41.7823 35.1272 41.49 34.4646 40.9638 33.9775C40.4182 33.4903 39.6777 33.2467 38.7423 33.2467C37.7874 33.2467 37.0372 33.4708 36.4915 33.919C35.9459 34.3867 35.6731 34.9908 35.6731 35.7313C35.6731 36.3354 35.8582 36.8323 36.2285 37.2221C36.5987 37.6118 37.0664 37.9139 37.6315 38.1282C38.1772 38.3621 38.9372 38.6154 39.9115 38.8882C41.2367 39.278 42.3182 39.658 43.1562 40.0282C43.9746 40.418 44.6859 40.9928 45.29 41.7528C45.8746 42.5323 46.1669 43.5652 46.1669 44.8513C46.1669 46.0595 45.8649 47.1118 45.2608 48.0082C44.6567 48.9046 43.809 49.5867 42.7177 50.0544C41.6264 50.5416 40.3792 50.7852 38.9762 50.7852C36.8715 50.7852 35.1664 50.2687 33.8608 49.2359C32.5356 48.2226 31.8049 46.8 31.6685 44.9682H36.17C36.209 45.6698 36.511 46.2446 37.0762 46.6928C37.6218 47.1605 38.3526 47.3944 39.2685 47.3944C40.0674 47.3944 40.7105 47.1898 41.1977 46.7805C41.6654 46.3713 41.8992 45.777 41.8992 44.9975C41.8992 44.4518 41.7238 43.9939 41.3731 43.6236C41.0028 43.2728 40.5546 42.9805 40.0285 42.7467C39.4828 42.5323 38.7228 42.279 37.7485 41.9867C36.4233 41.597 35.3418 41.2072 34.5038 40.8175C33.6659 40.4277 32.9449 39.8431 32.3408 39.0636C31.7367 38.2841 31.4346 37.2611 31.4346 35.9944C31.4346 34.9031 31.7172 33.8898 32.2823 32.9544C32.8474 32.019 33.6756 31.2687 34.7669 30.7036C35.8582 30.158 37.1541 29.8852 38.6546 29.8852Z" fill="black"/>
<path d="M24.4182 50.7852V38.1575C24.4182 36.7739 24.0577 35.7118 23.3367 34.9713C22.6157 34.2503 21.6023 33.8898 20.2967 33.8898C18.9716 33.8898 17.9485 34.2503 17.2275 34.9713C16.5064 35.7118 16.1459 36.7739 16.1459 38.1575V50.7852H12.0244V38.1867C12.0244 36.4523 12.4044 34.9811 13.1644 33.7728C13.9049 32.5841 14.9085 31.6877 16.1752 31.0836C17.4223 30.4795 18.8157 30.1775 20.3552 30.1775C21.8752 30.1775 23.2587 30.4795 24.5059 31.0836C25.7336 31.6877 26.708 32.5841 27.429 33.7728C28.15 34.9811 28.5105 36.4523 28.5105 38.1867V50.7852H24.4182Z" fill="black"/>
<path d="M56.333 1.5H1.33301V56.5H56.333V1.5Z" stroke="black" stroke-width="2"/>
</g>
<defs>
<clipPath id="clip0_104_60">
<rect width="58" height="58" fill="white"/>
</clipPath>
</defs>
</svg>
