<svg width="106" height="28" viewBox="0 0 106 28" fill="none" xmlns="http://www.w3.org/2000/svg">
<g clip-path="url(#clip0_104_22)">
<path d="M8.89397 27.2496V17.8258L0 0.756927H5.48777L11.354 12.9814L17.1824 0.756927H22.5945L13.7383 17.8258V27.2496H8.89397Z" fill="black"/>
<path d="M28.0696 27.7038C26.2529 27.7038 24.6129 27.2874 23.1495 26.4548C21.7113 25.6222 20.5633 24.4742 19.7055 23.0108C18.8728 21.5221 18.4565 19.8064 18.4565 17.8636C18.4565 15.9208 18.8855 14.2177 19.7433 12.7543C20.6012 11.2657 21.7492 10.1051 23.1874 9.27244C24.6508 8.43982 26.2908 8.0235 28.1074 8.0235C29.8988 8.0235 31.5136 8.43982 32.9518 9.27244C34.4152 10.1051 35.5632 11.2657 36.3958 12.7543C37.2537 14.2177 37.6826 15.9208 37.6826 17.8636C37.6826 19.8064 37.2537 21.5221 36.3958 23.0108C35.5632 24.4742 34.4152 25.6222 32.9518 26.4548C31.4884 27.2874 29.861 27.7038 28.0696 27.7038ZM28.0696 23.5028C29.3311 23.5028 30.4287 23.036 31.3622 22.1025C32.2958 21.1437 32.7626 19.7307 32.7626 17.8636C32.7626 15.9965 32.2958 14.5962 31.3622 13.6626C30.4287 12.7039 29.3437 12.2245 28.1074 12.2245C26.8206 12.2245 25.7105 12.7039 24.7769 13.6626C23.8686 14.5962 23.4144 15.9965 23.4144 17.8636C23.4144 19.7307 23.8686 21.1437 24.7769 22.1025C25.7105 23.036 26.808 23.5028 28.0696 23.5028Z" fill="black"/>
<path d="M46.688 27.7038C44.3415 27.7038 42.5248 26.9721 41.238 25.5087C39.9765 24.0453 39.3457 21.9006 39.3457 19.0747V8.47766H44.1522V18.6206C44.1522 20.2354 44.4802 21.4717 45.1362 22.3295C45.7923 23.1874 46.8267 23.6163 48.2397 23.6163C48.4566 23.6163 48.6672 23.6037 48.8714 23.5785C49.9267 23.4482 50.8136 22.9814 51.5323 22.1781C52.0027 21.6675 52.9766 20.2647 53.5195 19.2255C54.2293 17.8668 52.2465 22.1058 52.2465 21.3039L57.7013 11.7286L56.6372 17.1471L53.1181 23.9986C52.5377 25.1088 51.6206 26.0637 50.5105 26.7197C50.3077 26.8424 50.0983 26.9535 49.8823 27.0532C48.9426 27.4869 47.8778 27.7038 46.688 27.7038Z" fill="black"/>
<path d="M53.1182 23.9986L52.2466 21.3039L57.7014 11.7286C58.0878 10.9894 58.6179 10.3191 59.2493 9.75997C59.5662 9.47935 59.9086 9.22674 60.2712 9.00752C61.3813 8.35151 62.6808 8.0235 64.1694 8.0235C66.4907 8.0235 68.2947 8.75521 69.5815 10.2186C70.8682 11.682 71.5116 13.8267 71.5116 16.6525V27.2496H66.6673V17.1067C66.6673 15.4919 66.3393 14.2556 65.6833 13.3977C65.0272 12.5399 64.0054 12.1109 62.6177 12.1109C61.2552 12.1109 60.1324 12.5903 59.2493 13.5491C58.3915 14.5079 57.7014 15.063 56.6373 17.1471L53.1182 23.9986Z" fill="black"/>
<path d="M75.4497 5.56346C74.5666 5.56346 73.8349 5.29853 73.2546 4.76868C72.6995 4.23883 72.4219 3.5702 72.4219 2.76281C72.4219 1.95541 72.6995 1.2994 73.2546 0.794779C73.8349 0.264926 74.46 0 75.343 0C76.2261 0 77.0518 0.264926 77.6069 0.794779C78.1872 1.2994 78.4774 1.95541 78.4774 2.76281C78.4774 3.5702 78.1872 4.23883 77.6069 4.76868C77.0518 5.29853 76.3327 5.56346 75.4497 5.56346ZM73.0275 27.2496V8.47765H77.8718V27.2496H73.0275Z" fill="black"/>
<path d="M89.7597 27.7038C87.8422 27.7038 86.1517 27.2874 84.6883 26.4548C83.2249 25.6222 82.0642 24.4616 81.2064 22.9729C80.3738 21.4843 79.9575 19.7812 79.9575 17.8636C79.9575 15.9461 80.3738 14.243 81.2064 12.7543C82.0642 11.2657 83.2249 10.1051 84.6883 9.27244C86.1517 8.43982 87.8422 8.0235 89.7597 8.0235C92.1567 8.0235 94.1752 8.65428 95.8152 9.91584C97.4552 11.1522 98.5023 12.8679 98.9565 15.063H93.8472C93.5949 14.1547 93.0902 13.4482 92.3333 12.9436C91.6016 12.4137 90.7311 12.1488 89.7219 12.1488C88.3846 12.1488 87.2492 12.6534 86.3157 13.6626C85.3821 14.6719 84.9154 16.0722 84.9154 17.8636C84.9154 19.655 85.3821 21.0554 86.3157 22.0646C87.2492 23.0739 88.3846 23.5785 89.7219 23.5785C90.7311 23.5785 91.6016 23.3262 92.3333 22.8215C93.0902 22.3169 93.5949 21.5978 93.8472 20.6643H98.9565C98.5023 22.7837 97.4552 24.4868 95.8152 25.7736C94.1752 27.0604 92.1567 27.7038 89.7597 27.7038Z" fill="black"/>
<path d="M102.972 27.5145C102.089 27.5145 101.357 27.237 100.777 26.6819C100.222 26.1268 99.9443 25.4582 99.9443 24.676C99.9443 23.8686 100.222 23.1874 100.777 22.6323C101.357 22.0772 102.089 21.7997 102.972 21.7997C103.855 21.7997 104.574 22.0772 105.13 22.6323C105.71 23.1874 106 23.8686 106 24.676C106 25.4582 105.71 26.1268 105.13 26.6819C104.574 27.237 103.855 27.5145 102.972 27.5145Z" fill="black"/>
</g>
<defs>
<clipPath id="clip0_104_22">
<rect width="106" height="28" fill="white"/>
</clipPath>
</defs>
</svg>
