<svg width="170" height="170" viewBox="0 0 170 170" fill="none" xmlns="http://www.w3.org/2000/svg">
<path d="M110.573 62C112.543 62 114.432 62.7786 115.825 64.1645C117.218 65.5504 118 67.4302 118 69.3902V100.61C118 102.57 117.218 104.449 115.825 105.835C114.432 107.221 112.543 108 110.573 108H59.4269C58.4515 108 57.4858 107.809 56.5847 107.437C55.6837 107.066 54.8649 106.522 54.1753 105.835C53.4856 105.149 52.9386 104.334 52.5653 103.438C52.1921 102.541 52 101.58 52 100.61V69.3902C52 67.4302 52.7825 65.5504 54.1753 64.1645C55.5681 62.7786 57.4571 62 59.4269 62H110.573ZM110.573 66.9268H59.4269C58.7703 66.9268 58.1406 67.1863 57.6763 67.6483C57.2121 68.1103 56.9512 68.7369 56.9512 69.3902V100.61C56.9512 101.97 58.0603 103.073 59.4269 103.073H110.573C111.23 103.073 111.859 102.814 112.324 102.352C112.788 101.89 113.049 101.263 113.049 100.61V69.3902C113.049 68.7369 112.788 68.1103 112.324 67.6483C111.859 67.1863 111.23 66.9268 110.573 66.9268ZM67.6789 93.2031H102.338C102.965 93.2033 103.569 93.4404 104.027 93.8665C104.485 94.2926 104.764 94.8759 104.807 95.4986C104.849 96.1213 104.653 96.7369 104.257 97.2211C103.861 97.7053 103.296 98.0219 102.674 98.1069L102.338 98.1299H67.6789C67.0517 98.1297 66.4479 97.8926 65.9896 97.4665C65.5313 97.0404 65.2526 96.4571 65.2098 95.8344C65.1671 95.2117 65.3634 94.5961 65.7593 94.1119C66.1551 93.6278 66.7209 93.3112 67.3422 93.2261L67.6789 93.2031H102.338H67.6789ZM99.862 81.7072C100.737 81.7072 101.577 82.0533 102.196 82.6692C102.815 83.2852 103.163 84.1206 103.163 84.9918C103.163 85.8629 102.815 86.6983 102.196 87.3143C101.577 87.9303 100.737 88.2763 99.862 88.2763C98.9865 88.2763 98.147 87.9303 97.5279 87.3143C96.9089 86.6983 96.5611 85.8629 96.5611 84.9918C96.5611 84.1206 96.9089 83.2852 97.5279 82.6692C98.147 82.0533 98.9865 81.7072 99.862 81.7072ZM80.0735 81.7072C80.949 81.7072 81.7885 82.0533 82.4076 82.6692C83.0266 83.2852 83.3743 84.1206 83.3743 84.9918C83.3743 85.8629 83.0266 86.6983 82.4076 87.3143C81.7885 87.9303 80.949 88.2763 80.0735 88.2763C79.1981 88.2763 78.3585 87.9303 77.7395 87.3143C77.1205 86.6983 76.7727 85.8629 76.7727 84.9918C76.7727 84.1206 77.1205 83.2852 77.7395 82.6692C78.3585 82.0533 79.1981 81.7072 80.0735 81.7072ZM70.171 81.7072C71.0465 81.7072 71.8861 82.0533 72.5051 82.6692C73.1241 83.2852 73.4719 84.1206 73.4719 84.9918C73.4719 85.8629 73.1241 86.6983 72.5051 87.3143C71.8861 87.9303 71.0465 88.2763 70.171 88.2763C69.2956 88.2763 68.456 87.9303 67.837 87.3143C67.218 86.6983 66.8702 85.8629 66.8702 84.9918C66.8702 84.1206 67.218 83.2852 67.837 82.6692C68.456 82.0533 69.2956 81.7072 70.171 81.7072ZM89.976 81.7072C90.8514 81.7072 91.691 82.0533 92.31 82.6692C92.9291 83.2852 93.2768 84.1206 93.2768 84.9918C93.2768 85.8629 92.9291 86.6983 92.31 87.3143C91.691 87.9303 90.8514 88.2763 89.976 88.2763C89.1006 88.2763 88.261 87.9303 87.642 87.3143C87.0229 86.6983 86.6752 85.8629 86.6752 84.9918C86.6752 84.1206 87.0229 83.2852 87.642 82.6692C88.261 82.0533 89.1006 81.7072 89.976 81.7072ZM65.2033 71.8536C66.0787 71.8536 66.9183 72.1996 67.5373 72.8156C68.1564 73.4316 68.5041 74.267 68.5041 75.1381C68.5041 76.0092 68.1564 76.8447 67.5373 77.4607C66.9183 78.0766 66.0787 78.4227 65.2033 78.4227C64.3279 78.4227 63.4883 78.0766 62.8693 77.4607C62.2502 76.8447 61.9025 76.0092 61.9025 75.1381C61.9025 74.267 62.2502 73.4316 62.8693 72.8156C63.4883 72.1996 64.3279 71.8536 65.2033 71.8536ZM75.0893 71.8536C75.9647 71.8536 76.8043 72.1996 77.4233 72.8156C78.0423 73.4316 78.3901 74.267 78.3901 75.1381C78.3901 76.0092 78.0423 76.8447 77.4233 77.4607C76.8043 78.0766 75.9647 78.4227 75.0893 78.4227C74.2138 78.4227 73.3743 78.0766 72.7552 77.4607C72.1362 76.8447 71.7884 76.0092 71.7884 75.1381C71.7884 74.267 72.1362 73.4316 72.7552 72.8156C73.3743 72.1996 74.2138 71.8536 75.0893 71.8536ZM84.9917 71.8536C85.8672 71.8536 86.7068 72.1996 87.3258 72.8156C87.9448 73.4316 88.2926 74.267 88.2926 75.1381C88.2926 76.0092 87.9448 76.8447 87.3258 77.4607C86.7068 78.0766 85.8672 78.4227 84.9917 78.4227C84.1163 78.4227 83.2767 78.0766 82.6577 77.4607C82.0387 76.8447 81.6909 76.0092 81.6909 75.1381C81.6909 74.267 82.0387 73.4316 82.6577 72.8156C83.2767 72.1996 84.1163 71.8536 84.9917 71.8536ZM94.8942 71.8536C95.7697 71.8536 96.6092 72.1996 97.2283 72.8156C97.8473 73.4316 98.195 74.267 98.195 75.1381C98.195 76.0092 97.8473 76.8447 97.2283 77.4607C96.6092 78.0766 95.7697 78.4227 94.8942 78.4227C94.0188 78.4227 93.1792 78.0766 92.5602 77.4607C91.9412 76.8447 91.5934 76.0092 91.5934 75.1381C91.5934 74.267 91.9412 73.4316 92.5602 72.8156C93.1792 72.1996 94.0188 71.8536 94.8942 71.8536ZM104.797 71.8536C105.672 71.8536 106.512 72.1996 107.131 72.8156C107.75 73.4316 108.098 74.267 108.098 75.1381C108.098 76.0092 107.75 76.8447 107.131 77.4607C106.512 78.0766 105.672 78.4227 104.797 78.4227C103.921 78.4227 103.082 78.0766 102.463 77.4607C101.844 76.8447 101.496 76.0092 101.496 75.1381C101.496 74.267 101.844 73.4316 102.463 72.8156C103.082 72.1996 103.921 71.8536 104.797 71.8536Z" fill="#EC7979"/>
<circle cx="85" cy="85" r="45.5" stroke="#EC7979"/>
</svg>
