<svg width="170" height="170" viewBox="0 0 170 170" fill="none" xmlns="http://www.w3.org/2000/svg">
<path d="M76.5233 103.136H93.4734H76.5233ZM85.0001 52.3548V55.9821V52.3548ZM108.084 61.9162L105.519 64.4807L108.084 61.9162ZM117.645 85H114.018H117.645ZM55.9822 85H52.355H55.9822ZM64.4808 64.4807L61.9164 61.9162L64.4808 64.4807ZM72.1742 97.8259C69.6383 95.2893 67.9115 92.0578 67.2121 88.5398C66.5127 85.0219 66.8721 81.3755 68.2449 78.0618C69.6178 74.7482 71.9423 71.916 74.9247 69.9233C77.9071 67.9307 81.4133 66.8672 85.0001 66.8672C88.5869 66.8672 92.0932 67.9307 95.0756 69.9233C98.058 71.916 100.383 74.7482 101.755 78.0618C103.128 81.3755 103.488 85.0219 102.788 88.5398C102.089 92.0578 100.362 95.2893 97.8261 97.8259L95.8383 99.81C94.702 100.947 93.8006 102.296 93.1857 103.781C92.5708 105.266 92.2544 106.857 92.2546 108.465V110.391C92.2546 112.315 91.4903 114.16 90.1298 115.52C88.7694 116.881 86.9241 117.645 85.0001 117.645C83.0761 117.645 81.2309 116.881 79.8705 115.52C78.51 114.16 77.7457 112.315 77.7457 110.391V108.465C77.7457 105.218 76.4544 102.102 74.1619 99.81L72.1742 97.8259Z" stroke="#EC7979" stroke-width="6.83333" stroke-linecap="round" stroke-linejoin="round"/>
<circle cx="85" cy="85" r="45.5" stroke="#EC7979"/>
</svg>
