<svg width="88" height="32" viewBox="0 0 88 32" fill="none" xmlns="http://www.w3.org/2000/svg">
<path d="M10.601 0.456055H16.1136L26.3905 31.1461H20.7992L18.2005 23.4952H8.43537L5.87597 31.1461H0.284668L10.601 0.456055ZM17.2161 19.3023L13.3573 6.63729L9.341 19.3023H17.2161Z" fill="white"/>
<path d="M32.3707 0.456055L39.3007 11.7811L46.1914 0.456055H52.0977L42.4114 16.0172L51.7827 31.1461H45.8764L39.3007 20.2533L32.6857 31.1461H26.74L36.1113 16.0172L26.425 0.456055H32.3707Z" fill="white"/>
<path d="M54.9126 31.1461V0.456055H60.3464V31.1461H54.9126Z" fill="#EC7979"/>
<path d="M87.0875 5.68633H78.1493V31.1461H72.7549V5.68633H63.8167V0.456055H87.0875V5.68633Z" fill="#EC7979"/>
</svg>
