<svg width="860" height="995" viewBox="0 0 860 995" fill="none" xmlns="http://www.w3.org/2000/svg">
<rect width="860" height="995" fill="#00462A"/>
<path d="M344.775 434.826C338.54 434.826 333.106 435.969 328.473 438.254C323.923 440.455 320.132 443.376 317.099 447.017C314.066 450.572 311.791 454.594 310.275 459.081C308.843 463.568 308.127 468.012 308.127 472.415C308.127 477.41 309.095 482.32 311.033 487.145C312.971 491.886 315.625 496.119 318.995 499.844C322.449 503.485 326.451 506.448 331 508.734C335.549 510.935 340.478 512.035 345.786 512.035C347.302 512.035 349.071 511.866 351.093 511.527C353.2 511.189 355.264 510.554 357.286 509.623C359.308 508.607 361.161 507.21 362.846 505.432C364.615 503.654 365.963 501.326 366.89 498.447H368.154V512.543C366.89 512.543 365.542 512.713 364.11 513.051C362.762 513.39 361.245 513.771 359.56 514.194C357.37 514.787 354.927 515.337 352.231 515.845C349.619 516.353 346.839 516.607 343.89 516.607C336.56 516.607 330.115 515.337 324.555 512.797C318.995 510.258 314.361 506.956 310.654 502.892C306.947 498.828 304.167 494.257 302.313 489.177C300.46 484.013 299.533 478.806 299.533 473.557C299.533 468.309 300.46 463.102 302.313 457.938C304.167 452.773 306.989 448.16 310.78 444.096C314.572 439.948 319.332 436.603 325.061 434.064C330.789 431.524 337.529 430.254 345.28 430.254C348.06 430.254 350.546 430.508 352.736 431.016C355.011 431.524 357.033 432.032 358.802 432.54C360.066 432.963 361.203 433.302 362.214 433.556C363.309 433.725 364.363 433.81 365.373 433.81V447.906H364.11C363.604 445.281 362.678 443.122 361.33 441.429C359.982 439.651 358.381 438.297 356.527 437.365C354.758 436.434 352.82 435.799 350.714 435.461C348.692 435.037 346.712 434.826 344.775 434.826Z" fill="#FF0000"/>
<path d="M375.868 514.067H376.5C377.174 514.067 377.764 513.856 378.269 513.432C378.775 512.924 379.196 512.332 379.533 511.654C379.954 510.977 380.249 510.258 380.418 509.496C380.671 508.734 380.797 508.014 380.797 507.337V439.397C380.797 438.805 380.671 438.127 380.418 437.365C380.249 436.603 379.954 435.884 379.533 435.207C379.196 434.529 378.775 433.979 378.269 433.556C377.764 433.048 377.174 432.794 376.5 432.794H375.868V431.524H424.522V443.334H423.258C423.09 441.387 422.331 439.694 420.983 438.254C419.636 436.73 417.529 435.969 414.665 435.969H389.264V468.097H410.242C412.179 468.097 413.78 467.504 415.044 466.319C416.392 465.134 417.066 463.737 417.066 462.128H418.33V478.002H417.066C417.066 476.478 416.434 475.166 415.17 474.065C413.907 472.965 412.264 472.415 410.242 472.415H389.264V510.892H416.94C418.54 510.892 419.93 510.511 421.11 509.75C422.289 508.988 423.258 508.099 424.016 507.083C424.859 505.982 425.449 504.839 425.786 503.654C426.207 502.384 426.418 501.326 426.418 500.479H427.681V515.337H375.868V514.067Z" fill="#FF0000"/>
<path d="M434.044 514.067H434.676C435.35 514.067 435.94 513.856 436.445 513.432C436.951 512.924 437.372 512.332 437.709 511.654C438.13 510.977 438.425 510.258 438.594 509.496C438.846 508.734 438.973 508.014 438.973 507.337V439.397C438.973 438.805 438.846 438.127 438.594 437.365C438.425 436.603 438.13 435.884 437.709 435.207C437.372 434.529 436.951 433.979 436.445 433.556C435.94 433.048 435.35 432.794 434.676 432.794H434.044V431.524H452.242V432.794H451.61C450.936 432.794 450.346 433.048 449.841 433.556C449.335 433.979 448.914 434.529 448.577 435.207C448.24 435.884 447.945 436.603 447.693 437.365C447.524 438.127 447.44 438.805 447.44 439.397V510.638H475.116C476.716 510.638 478.106 510.258 479.286 509.496C480.465 508.734 481.434 507.802 482.192 506.702C483.035 505.517 483.625 504.289 483.962 503.019C484.383 501.665 484.593 500.437 484.593 499.336H485.857V515.337H434.044V514.067Z" fill="#FF0000"/>
<path d="M542.42 514.067H543.052C545.074 514.067 546.085 513.136 546.085 511.273C546.085 510.596 545.958 509.877 545.706 509.115L534.332 478.256H512.217L501.222 508.607C500.97 509.284 500.843 509.919 500.843 510.511C500.843 511.612 501.138 512.501 501.728 513.178C502.318 513.771 502.95 514.067 503.624 514.067H504.255V515.337H490.228V514.067H491.763C492.858 514.067 493.008 513.432 494.019 512.162C495.114 510.808 495.999 509.242 496.673 507.464L525.612 430L553.92 506.702C554.51 508.395 555.31 510.046 556.321 511.654C557.416 513.263 558.806 514.067 560.491 514.067H561.123V515.337H542.42V514.067ZM513.481 473.938H532.942L523.211 447.398L513.481 473.938Z" fill="#FF0000"/>
<path d="M393.12 544.445V551.274C393.12 552.09 393.063 552.699 392.949 553.1C392.835 553.555 392.642 553.94 392.368 554.255C391.835 554.879 391.129 555.191 390.249 555.191C389.584 555.191 388.962 555.018 388.383 554.672L389.162 553.312C389.549 553.571 389.912 553.701 390.249 553.701C390.723 553.701 391.051 553.521 391.233 553.161C391.425 552.801 391.521 552.172 391.521 551.274V544.445H393.12ZM405.474 545.942H401.242V548.479H405.351V549.976H401.242V553.503H405.474V555H399.649V544.445H405.474V545.942ZM412.085 544.445L414.833 551.5L417.704 543.933L420.452 551.5L423.371 544.445H425.101L420.384 555.67L417.67 548.191L414.84 555.677L410.355 544.445H412.085ZM436.237 545.942H432.006V548.479H436.114V549.976H432.006V553.503H436.237V555H430.413V544.445H436.237V545.942ZM443.922 544.445V553.503H447.025V555H442.329V544.445H443.922ZM456.111 550.502L459.379 555H457.431L454.416 550.68H454.129V555H452.536V544.445H454.402C455.797 544.445 456.804 544.707 457.424 545.231C458.107 545.815 458.449 546.585 458.449 547.542C458.449 548.289 458.235 548.932 457.807 549.47C457.378 550.007 456.813 550.352 456.111 550.502ZM454.129 549.292H454.635C456.143 549.292 456.897 548.715 456.897 547.562C456.897 546.482 456.164 545.942 454.696 545.942H454.129V549.292ZM466.64 550.44L463.194 544.445H465.026L467.439 548.663L469.859 544.445H471.691L468.232 550.44V555H466.64V550.44Z" fill="#FB0B0B"/>
</svg>
