<svg width="860" height="995" viewBox="0 0 860 995" fill="none" xmlns="http://www.w3.org/2000/svg">
<rect width="860" height="995" fill="#E7A656"/>
<path d="M261.058 521.829H247.882L266.056 456.403C266.359 455.488 266.612 454.319 266.814 452.895C267.116 451.37 267.116 449.998 266.814 448.778C266.511 447.558 265.551 446.947 263.936 446.947C261.715 446.947 259.695 448.117 257.878 450.455C256.061 452.794 254.142 456.81 252.123 462.503L250.154 468.146H247.276L251.063 457.013C253.284 450.608 256.111 446.388 259.544 444.355C262.977 442.321 266.258 441.305 269.388 441.305C273.427 441.305 276.002 442.474 277.112 444.812C278.223 447.151 278.526 449.998 278.021 453.353C277.516 456.606 276.809 459.707 275.901 462.656L261.058 521.829ZM303.919 458.996C304.929 455.844 305.434 452.946 305.434 450.303C305.434 447.558 304.02 446.185 301.193 446.185C298.366 446.185 295.236 447.964 291.803 451.523C288.471 454.98 285.038 459.86 281.504 466.163C278.071 472.365 274.74 479.635 271.509 487.972C268.278 496.207 265.4 505.053 262.876 514.508L267.874 490.107C272.518 477.907 276.86 468.248 280.899 461.131C284.937 454.014 288.976 448.93 293.015 445.88C297.154 442.83 301.546 441.305 306.191 441.305C310.532 441.305 313.36 442.576 314.672 445.117C315.985 447.558 316.439 450.557 316.035 454.115C315.631 457.674 314.975 461.08 314.066 464.333L298.618 521.829H284.988L303.919 458.996ZM341.782 458.996C342.792 455.844 343.296 452.946 343.296 450.303C343.296 447.558 342.186 446.185 339.964 446.185C336.027 446.185 331.736 449.337 327.091 455.64C322.447 461.842 317.752 470.434 313.006 481.414C308.362 492.293 303.869 504.748 299.527 518.779L303.01 499.258C306.948 488.684 310.583 479.737 313.915 472.416C317.247 464.994 320.528 458.996 323.759 454.42C326.99 449.845 330.322 446.541 333.755 444.507C337.188 442.372 340.924 441.305 344.962 441.305C349.203 441.305 352.081 442.525 353.595 444.965C355.11 447.405 355.715 450.404 355.412 453.963C355.211 457.42 354.554 460.877 353.444 464.333L338.753 508.866C337.743 512.017 337.39 514.407 337.693 516.034C337.996 517.559 339.157 518.321 341.176 518.321C343.094 518.321 344.962 517.254 346.78 515.118C348.698 512.983 350.718 508.866 352.838 502.765L354.807 497.123H357.684L353.898 508.256C351.677 514.661 348.85 518.88 345.417 520.914C341.984 522.947 338.702 523.964 335.572 523.964C333.048 523.964 331.029 523.557 329.514 522.744C328.101 522.032 326.99 521.066 326.182 519.846C324.971 517.914 324.567 515.525 324.971 512.678C325.375 509.73 326.182 506.375 327.394 502.613L341.782 458.996Z" fill="#FFFAFA"/>
<path d="M384.884 519.084C387.307 519.084 390.084 517.559 393.214 514.508C396.344 511.357 399.524 507.137 402.755 501.85C405.986 496.563 408.965 490.565 411.691 483.854C414.417 477.144 416.588 470.179 418.203 462.961L415.629 479.432C409.873 495.699 404.068 507.188 398.212 513.898C392.456 520.609 386.55 523.964 380.492 523.964C375.746 523.964 372.162 522.235 369.739 518.779C367.417 515.322 366.255 510.899 366.255 505.51C366.255 500.63 367.063 495.343 368.679 489.65C370.294 483.854 372.515 478.11 375.342 472.416C378.271 466.723 381.602 461.537 385.338 456.86C389.074 452.184 393.113 448.422 397.454 445.575C401.897 442.728 406.39 441.305 410.934 441.305C414.467 441.305 417.143 443.084 418.96 446.642C420.879 450.099 421.283 454.98 420.172 461.283L418.506 462.198C419.213 456.81 418.859 452.489 417.446 449.235C416.032 445.88 413.71 444.202 410.479 444.202C407.147 444.202 403.664 446.185 400.029 450.15C396.495 454.115 393.163 459.301 390.033 465.706C386.903 472.01 384.379 478.872 382.461 486.294C380.542 493.615 379.583 500.63 379.583 507.341C379.583 511.712 380.037 514.763 380.946 516.491C381.956 518.219 383.268 519.084 384.884 519.084ZM423.05 443.44C425.473 443.338 427.896 443.135 430.319 442.83C432.742 442.525 434.964 442.016 436.983 441.305L418.052 508.713C417.85 509.628 417.547 510.848 417.143 512.373C416.84 513.797 416.84 515.118 417.143 516.339C417.547 517.559 418.607 518.169 420.324 518.169C422.343 518.169 424.312 517.05 426.23 514.813C428.148 512.577 430.067 508.51 431.985 502.613L433.803 496.97H436.68L432.894 508.103C430.673 514.203 427.947 518.372 424.716 520.609C421.485 522.846 418.405 523.964 415.477 523.964C411.539 523.964 408.763 522.642 407.147 519.999C405.835 517.66 405.481 514.966 406.087 511.916C406.693 508.764 407.4 505.612 408.207 502.46L423.05 443.44Z" fill="#FFFAFA"/>
<path d="M584.552 441C593.161 441 599.861 443.669 604.654 449.008C609.545 454.248 611.991 462.453 611.991 473.625H560.195L560.049 470.807H597.905C598.101 465.963 597.709 461.514 596.731 457.461C595.753 453.308 594.188 449.997 592.036 447.525C589.981 445.053 587.291 443.818 583.966 443.818C579.466 443.818 575.455 446.091 571.934 450.639C568.51 455.187 566.456 462.404 565.771 472.29L566.211 472.883C566.016 474.366 565.869 475.998 565.771 477.777C565.673 479.557 565.624 481.336 565.624 483.116C565.624 489.838 566.7 495.622 568.852 500.466C571.004 505.311 573.792 509.018 577.216 511.588C580.738 514.06 584.357 515.296 588.074 515.296C592.476 515.296 596.535 514.208 600.253 512.033C603.97 509.858 607.1 506.003 609.643 500.466L612.578 501.653C611.502 504.915 609.741 508.079 607.296 511.143C604.85 514.208 601.769 516.729 598.052 518.706C594.334 520.585 590.03 521.524 585.139 521.524C578.096 521.524 572.032 519.893 566.945 516.63C561.956 513.368 558.092 508.87 555.353 503.136C552.712 497.303 551.392 490.629 551.392 483.116C551.392 474.416 552.761 466.952 555.5 460.723C558.239 454.396 562.103 449.552 567.092 446.19C572.08 442.73 577.901 441 584.552 441Z" fill="#FFFAFA"/>
<path d="M445.069 441.609C446.617 441.683 448.644 441.758 451.15 441.832C453.655 441.906 456.124 441.943 458.557 441.943C462.021 441.943 465.337 441.906 468.506 441.832C471.675 441.758 473.923 441.72 475.25 441.72C484.168 441.72 490.837 443.572 495.26 447.276C499.682 450.979 501.893 455.572 501.893 461.053C501.893 463.275 501.45 465.645 500.566 468.164C499.682 470.682 498.134 473.053 495.923 475.275C493.786 477.497 490.837 479.349 487.079 480.83C483.32 482.237 478.566 482.941 472.818 482.941H462.205V480.719H471.712C476.945 480.719 480.925 479.904 483.652 478.275C486.452 476.571 488.332 474.349 489.29 471.608C490.322 468.793 490.837 465.683 490.837 462.275C490.837 456.424 489.437 451.905 486.637 448.72C483.91 445.461 479.193 443.832 472.486 443.832C469.096 443.832 466.885 444.461 465.853 445.72C464.821 446.98 464.305 449.535 464.305 453.387V508.496C464.305 511.162 464.526 513.162 464.969 514.495C465.411 515.829 466.258 516.718 467.511 517.162C468.838 517.606 470.754 517.903 473.26 518.051V520.273C471.565 520.125 469.427 520.051 466.848 520.051C464.342 519.977 461.799 519.94 459.22 519.94C456.346 519.94 453.655 519.977 451.15 520.051C448.644 520.051 446.617 520.125 445.069 520.273V518.051C447.575 517.903 449.455 517.606 450.707 517.162C452.034 516.718 452.918 515.829 453.361 514.495C453.803 513.162 454.024 511.162 454.024 508.496V453.387C454.024 450.646 453.803 448.646 453.361 447.387C452.918 446.054 452.034 445.165 450.707 444.72C449.455 444.202 447.575 443.906 445.069 443.832V441.609ZM462.647 481.052C466.627 481.2 469.759 481.386 472.044 481.608C474.329 481.756 476.171 481.904 477.571 482.052C479.045 482.2 480.446 482.386 481.772 482.608C486.71 483.423 490.248 484.941 492.385 487.163C494.596 489.311 496.218 492.681 497.249 497.274L500.013 508.607C500.75 511.866 501.487 514.236 502.224 515.718C503.035 517.125 504.251 517.792 505.872 517.718C507.125 517.643 508.157 517.236 508.968 516.495C509.852 515.755 510.774 514.755 511.732 513.495L513.39 514.718C511.842 517.014 510.221 518.792 508.526 520.051C506.904 521.236 504.583 521.828 501.561 521.828C498.834 521.828 496.439 521.014 494.375 519.384C492.311 517.755 490.764 514.569 489.732 509.829L487.3 498.718C486.637 495.533 485.863 492.793 484.978 490.496C484.168 488.126 482.988 486.274 481.441 484.941C479.967 483.608 477.756 482.941 474.808 482.941H462.868L462.647 481.052Z" fill="#FFFAFA"/>
<path d="M544.724 441.609V443.832C542.218 443.906 540.302 444.202 538.976 444.72C537.723 445.165 536.875 446.054 536.433 447.387C535.991 448.646 535.77 450.646 535.77 453.387V508.496C535.77 511.162 535.991 513.162 536.433 514.495C536.875 515.829 537.723 516.718 538.976 517.162C540.302 517.606 542.218 517.903 544.724 518.051V520.273C543.029 520.125 540.892 520.051 538.312 520.051C535.806 519.977 533.264 519.94 530.684 519.94C527.81 519.94 525.12 519.977 522.614 520.051C520.108 520.051 518.081 520.125 516.534 520.273V518.051C519.04 517.903 520.919 517.606 522.172 517.162C523.498 516.718 524.383 515.829 524.825 514.495C525.267 513.162 525.488 511.162 525.488 508.496V453.387C525.488 450.646 525.267 448.646 524.825 447.387C524.383 446.054 523.498 445.165 522.172 444.72C520.919 444.202 519.04 443.906 516.534 443.832V441.609C518.081 441.683 520.108 441.758 522.614 441.832C525.12 441.906 527.81 441.943 530.684 441.943C533.264 441.943 535.806 441.906 538.312 441.832C540.892 441.758 543.029 441.683 544.724 441.609Z" fill="#FFFAFA"/>
<path fill-rule="evenodd" clip-rule="evenodd" d="M444.77 441.291L445.087 441.306C446.632 441.38 448.657 441.454 451.162 441.528C453.665 441.602 456.131 441.639 458.56 441.639C462.021 441.639 465.336 441.602 468.502 441.528C471.671 441.454 473.922 441.417 475.253 441.417C484.204 441.417 490.957 443.274 495.456 447.043C499.943 450.801 502.199 455.477 502.199 461.055C502.199 463.318 501.748 465.722 500.855 468.267C499.953 470.835 498.378 473.242 496.142 475.49C493.966 477.751 490.978 479.623 487.192 481.116L487.19 481.117L487.187 481.117C485.756 481.653 484.184 482.088 482.473 482.421C487.103 483.264 490.496 484.761 492.602 486.949C494.87 489.154 496.509 492.587 497.547 497.205C497.548 497.206 497.548 497.207 497.548 497.208L500.311 508.538L500.312 508.541C501.046 511.789 501.775 514.126 502.494 515.574C502.875 516.233 503.343 516.706 503.892 517.007C504.443 517.309 505.096 517.449 505.86 517.414C507.053 517.343 508.016 516.958 508.767 516.271L508.772 516.267L508.777 516.262C509.639 515.54 510.545 514.559 511.494 513.311L511.674 513.075L513.808 514.647L513.644 514.89C512.082 517.207 510.438 519.013 508.709 520.298L508.707 520.299C507.013 521.537 504.619 522.135 501.564 522.135C498.772 522.135 496.31 521.299 494.191 519.626C492.042 517.928 490.475 514.654 489.439 509.896L487.006 498.782C486.346 495.609 485.576 492.885 484.699 490.608L484.697 490.603L484.695 490.597C483.898 488.267 482.745 486.465 481.247 485.174L481.244 485.172L481.241 485.169C479.845 483.906 477.72 483.248 474.811 483.248H464.611V508.497C464.611 511.155 464.833 513.115 465.259 514.4C465.673 515.649 466.454 516.463 467.612 516.875C468.901 517.306 470.786 517.6 473.281 517.748L473.566 517.765V520.607L473.237 520.578C471.554 520.431 469.426 520.357 466.851 520.357H466.847L466.842 520.357C464.339 520.283 461.8 520.246 459.223 520.246C456.351 520.246 453.664 520.283 451.162 520.357L451.157 520.357H451.153C448.651 520.357 446.635 520.431 445.101 520.578L444.77 520.61V517.765L445.055 517.748C447.553 517.6 449.398 517.306 450.61 516.876L450.612 516.875L450.615 516.874C451.851 516.46 452.665 515.642 453.076 514.4C453.503 513.115 453.724 511.155 453.724 508.497V453.388C453.724 450.654 453.502 448.698 453.078 447.49L453.077 447.488L453.076 447.485C452.665 446.243 451.851 445.425 450.615 445.011L450.605 445.008L450.595 445.004C449.394 444.507 447.558 444.212 445.064 444.138L444.77 444.129V441.291ZM467.514 517.163C466.261 516.719 465.414 515.83 464.972 514.497C464.529 513.164 464.308 511.164 464.308 508.497V482.943H474.811C475.646 482.943 476.422 482.996 477.139 483.103C478.952 483.374 480.387 483.987 481.444 484.943C482.991 486.276 484.171 488.128 484.981 490.498C485.866 492.794 486.64 495.535 487.303 498.72L489.735 509.83C490.767 514.571 492.315 517.756 494.378 519.386C496.442 521.015 498.837 521.83 501.564 521.83C504.586 521.83 506.907 521.237 508.529 520.052C510.224 518.793 511.845 517.015 513.393 514.719L511.735 513.497C510.777 514.756 509.855 515.756 508.971 516.497C508.16 517.238 507.128 517.645 505.876 517.719C504.254 517.793 503.038 517.126 502.227 515.719C501.49 514.238 500.753 511.867 500.016 508.608L497.253 497.275C496.221 492.683 494.599 489.313 492.388 487.165C490.251 484.943 486.713 483.424 481.775 482.609C481.717 482.599 481.658 482.59 481.6 482.58C481.276 482.527 480.947 482.476 480.615 482.427C480.947 482.378 481.276 482.326 481.599 482.271C483.616 481.925 485.443 481.445 487.082 480.832C490.841 479.35 493.789 477.498 495.926 475.276C498.137 473.054 499.685 470.684 500.569 468.165C501.453 465.647 501.896 463.277 501.896 461.055C501.896 455.573 499.685 450.981 495.263 447.277C490.841 443.574 484.171 441.722 475.253 441.722C473.926 441.722 471.678 441.759 468.509 441.833C465.34 441.907 462.024 441.944 458.56 441.944C456.128 441.944 453.659 441.907 451.153 441.833C448.807 441.764 446.881 441.694 445.375 441.625C445.272 441.62 445.171 441.616 445.072 441.611V443.833C447.578 443.907 449.458 444.203 450.711 444.722C452.037 445.166 452.922 446.055 453.364 447.388C453.806 448.648 454.027 450.648 454.027 453.388V508.497C454.027 511.164 453.806 513.164 453.364 514.497C452.922 515.83 452.037 516.719 450.711 517.163C449.458 517.608 447.578 517.904 445.072 518.052V520.274C445.171 520.265 445.272 520.256 445.375 520.247C446.881 520.117 448.807 520.052 451.153 520.052C453.659 519.978 456.349 519.941 459.223 519.941C461.802 519.941 464.345 519.978 466.851 520.052C469.279 520.052 471.316 520.118 472.96 520.249C473.063 520.257 473.164 520.266 473.263 520.274V518.052C470.757 517.904 468.841 517.608 467.514 517.163ZM471.715 480.72C476.948 480.72 480.928 479.906 483.655 478.276C486.455 476.572 488.335 474.35 489.293 471.61C490.325 468.795 490.841 465.684 490.841 462.277C490.841 456.425 489.44 451.907 486.64 448.722C483.913 445.463 479.196 443.833 472.489 443.833C469.099 443.833 466.888 444.463 465.856 445.722C464.824 446.981 464.308 449.536 464.308 453.388V480.72H471.715ZM464.611 480.415H471.715C476.925 480.415 480.84 479.603 483.499 478.014C486.248 476.342 488.076 474.173 489.007 471.508L489.008 471.506L489.009 471.504C490.027 468.727 490.538 465.653 490.538 462.277C490.538 456.472 489.149 452.035 486.413 448.924L486.41 448.921L486.408 448.918C483.765 445.76 479.158 444.138 472.489 444.138C470.81 444.138 469.44 444.294 468.371 444.599C467.301 444.903 466.553 445.35 466.09 445.916C465.619 446.491 465.245 447.389 464.992 448.644C464.74 449.894 464.611 451.474 464.611 453.388V480.415ZM545.03 441.292V444.129L544.736 444.138C542.243 444.212 540.367 444.506 539.088 445.006L539.084 445.008L539.079 445.01C537.92 445.421 537.138 446.236 536.723 447.485L536.722 447.488L536.722 447.49C536.297 448.698 536.076 450.654 536.076 453.388V508.497C536.076 511.155 536.297 513.115 536.723 514.4C537.137 515.649 537.918 516.463 539.077 516.875C540.366 517.306 542.25 517.6 544.745 517.748L545.03 517.765V520.607L544.701 520.578C543.018 520.431 540.89 520.357 538.315 520.357H538.311L538.306 520.357C535.804 520.283 533.264 520.246 530.687 520.246C527.816 520.246 525.128 520.283 522.626 520.357L522.622 520.357H522.617C520.116 520.357 518.1 520.431 516.565 520.578L516.234 520.61V517.765L516.519 517.748C519.017 517.6 520.862 517.306 522.074 516.876L522.077 516.875L522.079 516.874C523.316 516.46 524.129 515.642 524.541 514.4C524.967 513.115 525.189 511.155 525.189 508.497V453.388C525.189 450.654 524.967 448.698 524.543 447.49L524.542 447.488L524.541 447.485C524.129 446.243 523.316 445.425 522.079 445.011L522.069 445.008L522.06 445.004C520.858 444.507 519.023 444.212 516.528 444.138L516.234 444.129V441.291L516.551 441.306C518.096 441.38 520.121 441.454 522.626 441.528C525.128 441.602 527.816 441.639 530.687 441.639C533.264 441.639 535.804 441.602 538.306 441.528C540.885 441.454 543.021 441.38 544.714 441.306L545.03 441.292ZM538.979 517.163C537.726 516.719 536.878 515.83 536.436 514.497C535.994 513.164 535.773 511.164 535.773 508.497V453.388C535.773 450.648 535.994 448.648 536.436 447.388C536.878 446.055 537.726 445.166 538.979 444.722C540.305 444.203 542.221 443.907 544.727 443.833V441.611C544.628 441.615 544.527 441.62 544.424 441.624C542.78 441.694 540.744 441.763 538.315 441.833C535.81 441.907 533.267 441.944 530.687 441.944C527.813 441.944 525.123 441.907 522.617 441.833C520.272 441.764 518.346 441.694 516.84 441.625C516.737 441.62 516.636 441.616 516.537 441.611V443.833C519.043 443.907 520.922 444.203 522.175 444.722C523.501 445.166 524.386 446.055 524.828 447.388C525.27 448.648 525.491 450.648 525.491 453.388V508.497C525.491 511.164 525.27 513.164 524.828 514.497C524.386 515.83 523.501 516.719 522.175 517.163C520.922 517.608 519.043 517.904 516.537 518.052V520.274C516.636 520.265 516.737 520.256 516.84 520.247C518.346 520.117 520.272 520.052 522.617 520.052C525.123 519.978 527.813 519.941 530.687 519.941C533.267 519.941 535.81 519.978 538.315 520.052C540.744 520.052 542.78 520.118 544.424 520.249C544.527 520.257 544.628 520.266 544.727 520.274V518.052C542.221 517.904 540.305 517.608 538.979 517.163Z" fill="#FFFAFA"/>
<path d="M318.48 545.197H319.781V554.476H318.48V545.197Z" fill="#FFFAFA"/>
<path d="M324.168 545.197H325.332L330.289 551.663L330.617 552.096L330.672 552.082V551.46V545.197H331.891V554.476H330.782L325.797 547.93L325.441 547.456L325.386 547.47V548.024V554.476H324.168V545.197Z" fill="#FFFAFA"/>
<path d="M338.555 546.32H335.324V545.197H343.088V546.32H339.856V554.476H338.555V546.32Z" fill="#FFFAFA"/>
<path d="M346.53 545.197H353.76V546.32H347.83V549.174H353.157V550.297H347.83V553.353H353.842V554.476H346.53V545.197Z" fill="#FFFAFA"/>
<path d="M357.717 545.197H362.606C363.546 545.197 364.267 545.436 364.769 545.914C365.271 546.392 365.522 547.032 365.522 547.835C365.522 548.466 365.367 549.012 365.057 549.472C364.756 549.931 364.336 550.261 363.797 550.459L365.961 554.476H364.509L362.469 550.648H359.018V554.476H357.717V545.197ZM362.537 549.526C363.048 549.526 363.455 549.377 363.756 549.079C364.057 548.782 364.208 548.372 364.208 547.849C364.208 547.362 364.066 546.987 363.783 546.726C363.5 546.455 363.085 546.32 362.537 546.32H359.018V549.526H362.537Z" fill="#FFFAFA"/>
<path d="M369.832 545.197H371.132V554.476H369.832V545.197Z" fill="#FFFAFA"/>
<path d="M379.764 554.638C378.276 554.638 377.121 554.237 376.299 553.435C375.487 552.623 375.081 551.424 375.081 549.837C375.081 548.25 375.487 547.055 376.299 546.252C377.121 545.441 378.276 545.035 379.764 545.035C381.261 545.035 382.416 545.441 383.228 546.252C384.05 547.055 384.461 548.25 384.461 549.837C384.461 551.415 384.05 552.61 383.228 553.421C382.416 554.233 381.261 554.638 379.764 554.638ZM379.764 553.543C380.85 553.543 381.681 553.254 382.256 552.677C382.831 552.091 383.119 551.162 383.119 549.891V549.837C383.11 548.547 382.817 547.61 382.242 547.023C381.667 546.428 380.841 546.131 379.764 546.131C378.696 546.131 377.874 546.428 377.299 547.023C376.724 547.61 376.432 548.547 376.423 549.837V549.891C376.423 551.162 376.71 552.091 377.285 552.677C377.86 553.254 378.687 553.543 379.764 553.543Z" fill="#FFFAFA"/>
<path d="M388.231 545.197H393.119C394.06 545.197 394.781 545.436 395.283 545.914C395.785 546.392 396.036 547.032 396.036 547.835C396.036 548.466 395.881 549.012 395.571 549.472C395.269 549.931 394.849 550.261 394.311 550.459L396.474 554.476H395.023L392.983 550.648H389.532V554.476H388.231V545.197ZM393.051 549.526C393.562 549.526 393.968 549.377 394.27 549.079C394.571 548.782 394.722 548.372 394.722 547.849C394.722 547.362 394.58 546.987 394.297 546.726C394.014 546.455 393.599 546.32 393.051 546.32H389.532V549.526H393.051Z" fill="#FFFAFA"/>
<path d="M406.033 545.197H409.511C411.017 545.197 412.176 545.581 412.989 546.347C413.801 547.105 414.208 548.268 414.208 549.837C414.208 551.406 413.801 552.574 412.989 553.34C412.176 554.097 411.017 554.476 409.511 554.476H406.033V545.197ZM409.511 553.353C410.597 553.353 411.423 553.083 411.989 552.542C412.564 552.001 412.857 551.108 412.866 549.864V549.837C412.866 548.583 412.578 547.686 412.003 547.145C411.437 546.595 410.606 546.32 409.511 546.32H407.333V553.353H409.511Z" fill="#FFFAFA"/>
<path d="M417.969 545.197H425.199V546.32H419.27V549.174H424.597V550.297H419.27V553.353H425.281V554.476H417.969V545.197Z" fill="#FFFAFA"/>
<path d="M432.621 554.638C431.48 554.638 430.549 554.413 429.828 553.962C429.106 553.511 428.746 552.808 428.746 551.852L428.76 551.582H430.047C430.028 551.708 430.019 551.803 430.019 551.866C430.019 552.416 430.248 552.835 430.704 553.124C431.17 553.403 431.786 553.543 432.553 553.543C433.411 553.543 434.068 553.412 434.525 553.151C434.981 552.88 435.209 552.497 435.209 552.001C435.209 551.667 435.091 551.392 434.853 551.176C434.616 550.95 434.315 550.775 433.949 550.648C433.593 550.522 433.11 550.382 432.498 550.229C431.74 550.04 431.128 549.859 430.663 549.688C430.197 549.508 429.8 549.246 429.472 548.904C429.143 548.552 428.979 548.092 428.979 547.524C428.979 546.712 429.321 546.095 430.006 545.671C430.69 545.247 431.567 545.035 432.635 545.035C433.703 545.035 434.57 545.252 435.237 545.684C435.903 546.108 436.236 546.762 436.236 547.646V547.808H434.963V547.605C434.963 547.145 434.748 546.784 434.319 546.523C433.899 546.261 433.351 546.131 432.676 546.131C431.955 546.131 431.375 546.239 430.937 546.455C430.508 546.672 430.293 546.996 430.293 547.429C430.293 547.745 430.407 548.002 430.636 548.2C430.873 548.399 431.16 548.561 431.498 548.687C431.845 548.804 432.324 548.94 432.936 549.093C433.694 549.282 434.31 549.467 434.785 549.647C435.269 549.828 435.675 550.094 436.003 550.445C436.341 550.788 436.51 551.239 436.51 551.798C436.51 552.79 436.159 553.511 435.456 553.962C434.762 554.413 433.817 554.638 432.621 554.638Z" fill="#FFFAFA"/>
<path d="M440.522 545.197H441.823V554.476H440.522V545.197Z" fill="#FFFAFA"/>
<path d="M450.427 554.638C448.893 554.638 447.734 554.242 446.949 553.448C446.164 552.646 445.771 551.442 445.771 549.837C445.771 546.636 447.351 545.035 450.509 545.035C451.806 545.035 452.846 545.319 453.631 545.887C454.417 546.455 454.809 547.28 454.809 548.362H453.481C453.481 547.614 453.216 547.055 452.687 546.685C452.157 546.316 451.431 546.131 450.509 546.131C449.368 546.131 448.519 546.419 447.962 546.996C447.405 547.573 447.127 548.52 447.127 549.837V549.864C447.136 551.171 447.41 552.114 447.949 552.691C448.496 553.259 449.322 553.543 450.427 553.543C451.486 553.543 452.262 553.326 452.755 552.894C453.257 552.461 453.508 551.798 453.508 550.905V550.77H450.194V549.647H454.809V554.476H453.796L453.7 553.448C452.988 554.242 451.897 554.638 450.427 554.638Z" fill="#FFFAFA"/>
<path d="M458.922 545.197H460.085L465.043 551.663L465.371 552.096L465.426 552.082V551.46V545.197H466.645V554.476H465.536L460.551 547.93L460.195 547.456L460.14 547.47V548.024V554.476H458.922V545.197Z" fill="#FFFAFA"/>
<path d="M480.859 554.638C479.343 554.638 478.202 554.242 477.435 553.448C476.668 552.646 476.285 551.442 476.285 549.837C476.285 548.232 476.668 547.032 477.435 546.239C478.202 545.436 479.343 545.035 480.859 545.035C482.082 545.035 483.059 545.337 483.789 545.941C484.529 546.537 484.898 547.407 484.898 548.552H483.57C483.57 547.758 483.328 547.159 482.844 546.753C482.37 546.338 481.708 546.131 480.859 546.131C479.754 546.131 478.942 546.419 478.421 546.996C477.901 547.573 477.636 548.511 477.627 549.81V549.837C477.627 551.144 477.887 552.091 478.408 552.677C478.928 553.254 479.745 553.543 480.859 553.543C481.726 553.543 482.402 553.34 482.885 552.934C483.378 552.528 483.625 551.933 483.625 551.149H484.898C484.898 552.303 484.533 553.173 483.803 553.759C483.073 554.345 482.091 554.638 480.859 554.638Z" fill="#FFFAFA"/>
<path d="M488.66 545.197H495.89V546.32H489.961V549.174H495.287V550.297H489.961V553.353H495.972V554.476H488.66V545.197Z" fill="#FFFAFA"/>
<path d="M499.847 545.197H501.011L505.968 551.663L506.297 552.096L506.352 552.082V551.46V545.197H507.57V554.476H506.461L501.477 547.93L501.121 547.456L501.066 547.47V548.024V554.476H499.847V545.197Z" fill="#FFFAFA"/>
<path d="M514.235 546.32H511.003V545.197H518.767V546.32H515.536V554.476H514.235V546.32Z" fill="#FFFAFA"/>
<path d="M522.209 545.197H529.439V546.32H523.51V549.174H528.837V550.297H523.51V553.353H529.521V554.476H522.209V545.197Z" fill="#FFFAFA"/>
<path d="M533.397 545.197H538.285C539.226 545.197 539.947 545.436 540.449 545.914C540.951 546.392 541.202 547.032 541.202 547.835C541.202 548.466 541.047 549.012 540.736 549.472C540.435 549.931 540.015 550.261 539.477 550.459L541.64 554.476H540.189L538.148 550.648H534.698V554.476H533.397V545.197ZM538.217 549.526C538.728 549.526 539.134 549.377 539.436 549.079C539.737 548.782 539.887 548.372 539.887 547.849C539.887 547.362 539.746 546.987 539.463 546.726C539.18 546.455 538.765 546.32 538.217 546.32H534.698V549.526H538.217Z" fill="#FFFAFA"/>
</svg>
