<svg width="860" height="995" viewBox="0 0 860 995" fill="none" xmlns="http://www.w3.org/2000/svg">
<rect width="860" height="995" fill="#DEDCE9"/>
<path d="M492.649 630.096V365H367.717V630.096H492.649Z" fill="#212121"/>
<path d="M476.037 381.976L475.926 466.287L459.075 466.26L459.147 411.421L436.565 466.237L423.808 466.22L401.248 411.349L401.178 466.188L384.325 466.166L384.431 381.855L403.57 381.881L430.213 444.604L457.024 381.951L476.037 381.976Z" fill="#F7F7F7"/>
<path d="M475.728 535.32H460.979V500.173H437.62V527.109H423.135V500.173H384.638V483.264H475.728V535.32Z" fill="#F7F7F7"/>
<path d="M475.72 565.444L435.13 596.216L475.716 596.124V613.036L384.626 613.241V596.33L425.472 596.238L384.631 565.65V545.235L429.783 579.921L475.723 544.062L475.72 565.444Z" fill="#F7F7F7"/>
</svg>
