<svg width="860" height="995" viewBox="0 0 860 995" fill="none" xmlns="http://www.w3.org/2000/svg">
<rect width="859.5" height="995" fill="#F66700"/>
<path d="M333.172 543.025C325.192 543.025 317.979 541.159 311.534 537.426C305.088 533.587 300.024 528.254 296.341 521.429C292.658 514.497 290.816 506.498 290.816 497.433C290.816 488.474 292.709 480.529 296.495 473.597C300.28 466.664 305.447 461.332 311.994 457.599C318.542 453.866 325.857 452 333.939 452C342.022 452 349.337 453.866 355.885 457.599C362.432 461.332 367.599 466.664 371.384 473.597C375.17 480.529 377.062 488.474 377.062 497.433C377.062 506.391 375.119 514.337 371.231 521.269C367.343 528.201 362.023 533.587 355.271 537.426C348.621 541.159 341.254 543.025 333.172 543.025ZM333.172 527.188C337.674 527.188 341.868 526.068 345.756 523.828C349.746 521.589 352.969 518.229 355.424 513.75C357.88 509.271 359.107 503.832 359.107 497.433C359.107 491.034 357.931 485.648 355.578 481.275C353.225 476.796 350.104 473.437 346.216 471.197C342.329 468.957 338.134 467.837 333.632 467.837C329.131 467.837 324.936 468.957 321.049 471.197C317.263 473.437 314.245 476.796 311.994 481.275C309.743 485.648 308.618 491.034 308.618 497.433C308.618 506.924 310.92 514.283 315.524 519.509C320.23 524.628 326.113 527.188 333.172 527.188Z" fill="#A7C1F5"/>
<path d="M496.716 452C503.366 452 509.3 453.44 514.518 456.319C519.838 459.199 523.982 463.465 526.949 469.117C530.018 474.77 531.552 481.595 531.552 489.594V541.586H514.211V492.314C514.211 484.421 512.318 478.396 508.533 474.236C504.748 469.97 499.581 467.837 493.033 467.837C486.486 467.837 481.268 469.97 477.38 474.236C473.595 478.396 471.702 484.421 471.702 492.314V541.586H454.361V492.314C454.361 484.421 452.468 478.396 448.683 474.236C444.897 469.97 439.731 467.837 433.183 467.837C426.635 467.837 421.417 469.97 417.53 474.236C413.744 478.396 411.852 484.421 411.852 492.314V541.586H394.357V453.44H411.852V463.518C414.716 459.892 418.348 457.066 422.747 455.04C427.147 453.013 431.853 452 436.866 452C443.618 452 449.655 453.493 454.975 456.479C460.295 459.465 464.387 463.785 467.252 469.437C469.809 464.105 473.799 459.892 479.222 456.799C484.644 453.6 490.476 452 496.716 452Z" fill="#A7C1F5"/>
<path d="M571.309 453.44V541.586H553.814V453.44H571.309Z" fill="#A7C1F5"/>
</svg>
