<svg width="860" height="995" viewBox="0 0 860 995" fill="none" xmlns="http://www.w3.org/2000/svg">
<rect width="860" height="995" fill="#6B44EC"/>
<path d="M277.096 541.542L282.877 505.44L287.503 505.755C287.819 510.893 288.266 514.643 288.842 517.002C289.837 520.935 291.642 524.422 294.257 527.463C296.663 530.242 299.382 532.366 302.414 533.834C305.498 535.25 308.843 535.958 312.45 535.958C318.878 535.958 323.842 533.913 327.341 529.823C330.893 525.68 332.667 520.882 332.664 515.429C332.661 508.665 326.097 500.118 312.973 489.788C299.849 478.986 293.284 468.997 293.279 459.821C293.274 451.169 296.145 443.802 301.89 437.719C307.688 431.637 315.761 428.596 326.11 428.596C328.984 428.596 331.937 428.884 334.969 429.461C336.955 429.828 338.706 430.274 340.222 430.798L344.3 432.135C345.188 432.397 346.103 432.633 347.044 432.843C347.985 433 348.821 433.079 349.553 433.079C351.434 433.079 352.871 432.686 353.864 431.899C354.856 431.112 355.718 430.142 356.449 428.989H361.232L354.742 461.237L350.509 460.686L349.957 455.416C349.275 450.435 347.731 446.162 345.325 442.596C341.558 436.985 336.069 434.18 328.857 434.18C322.69 434.18 318.196 436.435 315.376 440.944C313.496 443.933 312.557 447.158 312.559 450.619C312.561 454.289 313.53 457.54 315.465 460.372C316.564 461.945 318.211 463.649 320.407 465.484L334.29 476.889C339.205 480.926 343.388 485.541 346.841 490.732C350.293 495.871 352.021 501.743 352.024 508.35C352.029 516.845 348.688 524.527 342.002 531.396C335.369 538.212 326.224 541.621 314.569 541.621C311.643 541.621 308.689 541.332 305.71 540.755C302.783 540.231 299.882 539.445 297.007 538.396L292.929 536.901C291.57 536.377 290.629 536.063 290.107 535.958C289.584 535.8 288.983 535.722 288.303 535.722C286.526 535.722 285.246 536.167 284.463 537.059C283.731 537.898 282.896 539.392 281.956 541.542H277.096Z" fill="#FFF500"/>
<path d="M409.001 464.383C414.436 464.383 419.297 465.615 423.584 468.08C431.113 472.379 434.88 479.694 434.886 490.024C434.892 501.455 430.56 512.545 421.89 523.294C412.437 534.988 401.621 540.834 389.444 540.834C383.224 540.834 377.317 538.894 371.723 535.014C366.181 531.134 363.407 524.579 363.402 515.35C363.396 503.867 367.701 492.751 376.319 482.001C385.772 470.256 396.666 464.383 409.001 464.383ZM382.536 524.789C382.537 527.568 382.878 529.744 383.559 531.317C384.867 534.306 387.324 535.8 390.93 535.8C397.62 535.8 403.626 528.092 408.949 512.676C413.384 499.725 415.599 488.53 415.594 479.091C415.593 476.574 415.278 474.608 414.65 473.192C413.446 470.57 411.198 469.259 407.906 469.259C400.223 469.259 393.773 477.439 388.555 493.799C384.538 506.227 382.531 516.556 382.536 524.789Z" fill="#FFF500"/>
<path d="M424.745 571.824C419.833 571.824 415.964 570.565 413.141 568.048C410.265 565.531 408.826 562.49 408.824 558.924C408.822 556.355 409.684 554.284 411.407 552.711C413.079 551.138 414.986 550.351 417.129 550.351C419.22 550.351 421.102 551.059 422.775 552.475C424.396 553.943 425.207 555.909 425.208 558.374C425.209 559.685 424.792 560.969 423.956 562.228C423.068 563.539 422.625 564.43 422.625 564.902C422.625 565.479 422.913 565.925 423.488 566.239C424.011 566.554 424.664 566.711 425.448 566.711C429.472 566.711 432.528 563.486 434.615 557.037C436.702 550.64 441.03 531.92 447.598 500.878L454.168 472.956H442.408L443.894 466.271H455.654C456.592 462.285 458.575 456.885 461.603 450.068C464.683 443.199 468.599 437.667 473.353 433.472C479.1 428.491 485.004 426 491.067 426C495.927 426 499.9 427.101 502.985 429.303C506.122 431.506 507.692 434.783 507.694 439.135C507.695 441.704 506.886 443.776 505.267 445.349C503.7 446.869 501.819 447.63 499.624 447.63C497.481 447.63 495.625 446.869 494.056 445.349C492.488 443.828 491.703 442.045 491.702 440C491.701 438.585 492.118 437.143 492.954 435.674C493.841 434.154 494.285 433.262 494.285 433C494.285 432.633 494.101 432.161 493.735 431.584C493.317 431.06 492.585 430.798 491.54 430.798C488.613 430.798 485.949 432.843 483.547 436.933C481.197 441.023 479.005 447 476.971 454.866L473.998 466.271H488.894L487.408 472.956H472.905C465.295 510.605 459.011 535.302 454.052 547.048C447.058 563.565 437.289 571.824 424.745 571.824Z" fill="#FFF500"/>
<path d="M482.663 529.272C482.662 528.171 482.818 526.729 483.131 524.946C483.496 523.163 484.2 520.384 485.243 516.609L497.292 472.956H489.139L489.136 467.372C494.413 465.222 498.855 462.862 502.459 460.293C508.833 455.783 514.161 449.989 518.443 442.911H524.244L517.907 466.271H529.431L529.435 472.956H516.029L505.701 510.238C504.762 513.541 504.032 516.294 503.511 518.497C502.624 522.272 502.181 524.867 502.182 526.283C502.183 527.28 502.47 527.935 503.046 528.25C503.673 528.564 504.196 528.722 504.614 528.722C506.129 528.722 508.062 527.411 510.413 524.789C512.816 522.167 515.009 519.178 516.993 515.822L520.522 518.103C515.77 525.339 511.958 530.373 509.085 533.205C504.227 537.924 499.08 540.284 493.645 540.284C490.509 540.284 487.895 539.261 485.803 537.216C483.712 535.119 482.665 532.471 482.663 529.272Z" fill="#FFF500"/>
<path d="M531.84 558.924C534.558 558.924 537.719 556.722 541.322 552.318C544.926 547.965 546.727 543.771 546.725 539.733C546.723 536.062 545.7 528.695 543.655 517.631C542.345 510.553 540.956 503.631 539.489 496.867C536.817 484.964 534.827 477.911 533.519 475.709C532.263 473.507 529.78 472.406 526.07 472.406L526.067 468.08C531.032 467.608 536.258 466.874 541.745 465.877C547.232 464.881 549.689 464.435 549.114 464.54L550.211 464.383C551.468 468.106 553.379 475.499 555.946 486.563C558.566 497.575 560.609 507.564 562.078 516.53L562.707 520.306L565.683 515.114C568.137 510.92 570.565 505.886 572.966 500.013C575.419 494.14 576.645 490.181 576.644 488.136C576.643 487.14 576.381 486.196 575.858 485.305C575.335 484.361 574.472 483.47 573.27 482.631L572.015 481.765C571.126 481.136 570.289 480.297 569.505 479.248C568.302 477.518 567.7 475.683 567.699 473.743C567.697 471.436 568.559 469.312 570.282 467.372C572.058 465.379 574.279 464.383 576.944 464.383C579.296 464.383 581.544 465.248 583.688 466.978C585.832 468.709 586.905 471.514 586.907 475.394C586.91 481.792 583.91 491.414 577.907 504.26C573.418 513.804 568.196 523.347 562.244 532.89C553.889 546.156 546.316 555.962 539.525 562.307C532.786 568.704 525.941 571.902 518.99 571.902C516.011 571.902 513.554 570.88 511.619 568.835C509.632 566.842 508.638 564.587 508.637 562.071C508.635 559.396 509.549 557.273 511.377 555.7C513.205 554.127 515.269 553.34 517.569 553.34C519.973 553.34 522.691 554.258 525.724 556.093C528.756 557.981 530.795 558.924 531.84 558.924Z" fill="#FFF500"/>
</svg>
