<svg width="26" height="25" viewBox="0 0 26 25" fill="none" xmlns="http://www.w3.org/2000/svg">
<g clip-path="url(#clip0_104_2)">
<path d="M24.1277 8.27751C23.8171 7.56346 23.4238 6.88908 22.9683 6.23454C22.5129 5.59983 22.016 5.00478 21.4364 4.46924C20.8774 3.93371 20.2563 3.43783 19.5731 3.00147C18.9107 2.56511 18.1861 2.18825 17.4408 1.89073C16.6748 1.59321 15.8881 1.35519 15.0807 1.19652C14.2526 1.03784 13.4038 0.958496 12.555 0.958496C11.7062 0.958496 10.8574 1.03784 10.0293 1.19652C9.22189 1.35519 8.43519 1.59321 7.6692 1.89073C6.92391 2.18825 6.22004 2.56511 5.53686 3.00147C4.87438 3.43783 4.2533 3.91387 3.67363 4.46924C3.11467 5.00478 2.5971 5.59983 2.14164 6.23454C1.68619 6.86925 1.29285 7.56346 0.982309 8.27751C0.65107 9.01139 0.423342 9.76511 0.257722 10.5387C0.0921025 11.332 0.00927734 12.1453 0.00927734 12.9585C0.00927734 13.7717 0.0921025 14.5849 0.257722 15.3783C0.423342 16.1519 0.671772 16.9056 0.982309 17.6395C1.29285 18.3535 1.68619 19.0478 2.14164 19.6825C2.5971 20.3172 3.09396 20.9122 3.67363 21.4478C4.2326 21.9833 4.85367 22.4792 5.53686 22.9155C6.19934 23.3519 6.92391 23.7287 7.6692 24.0263C8.43519 24.3436 9.22189 24.5618 10.0293 24.7205C10.8574 24.8792 11.7062 24.9585 12.555 24.9585C13.4038 24.9585 14.2526 24.8792 15.0807 24.7205C15.8881 24.5618 16.6748 24.3238 17.4408 24.0263C18.1861 23.7287 18.8899 23.3519 19.5731 22.9155C20.2356 22.4792 20.8567 22.0031 21.4364 21.4478C21.9953 20.9122 22.5129 20.3172 22.9683 19.6825C23.4238 19.0478 23.8171 18.3535 24.1277 17.6395C24.4382 16.9254 24.6866 16.1519 24.8523 15.3783C25.0179 14.5849 25.1007 13.7717 25.1007 12.9585C25.1007 12.1453 25.0179 11.332 24.8523 10.5387C24.7073 9.76511 24.4589 9.01139 24.1277 8.27751ZM12.5964 2.70395C15.3084 2.70395 17.772 3.67585 19.6559 5.26263C19.6352 5.3023 18.1033 7.52379 14.0663 8.97172C12.2445 5.7585 10.2363 3.19982 10.0707 3.00147C10.8781 2.80312 11.7269 2.70395 12.5964 2.70395ZM10.0293 3.00147C10.0293 3.00147 10.0086 3.00147 9.98789 3.00147C10.0086 3.00147 10.0293 3.00147 10.0293 3.00147ZM8.04185 3.67585C8.18677 3.85437 10.1535 6.43288 12.0167 9.5866C6.8825 10.8957 2.43148 10.8362 2.14164 10.8362C2.82483 7.66263 5.03999 5.02461 8.04185 3.67585ZM4.64664 19.8015C2.94904 17.9767 1.91392 15.5767 1.91392 12.9585C1.91392 12.8593 1.91392 12.7403 1.91392 12.6411C2.10024 12.6411 7.37938 12.7601 12.8862 11.1734C13.1968 11.7486 13.4866 12.3238 13.7557 12.9188C13.6108 12.9585 13.4659 12.9982 13.3417 13.0378C7.56569 14.823 4.62594 19.8015 4.64664 19.8015C4.64664 19.8015 4.62594 19.8015 4.64664 19.8015ZM12.5964 23.1932C10.0707 23.1932 7.75201 22.3601 5.90949 20.9519C5.86808 20.932 5.82669 20.8924 5.76458 20.8527C5.82669 20.8924 5.86808 20.932 5.90949 20.9519C5.97159 20.9916 6.013 21.0312 6.013 21.0312C6.013 21.0312 8.06255 16.7469 14.3975 14.6246C14.4182 14.6246 14.4389 14.6048 14.4596 14.6048C15.9709 18.3535 16.592 21.4874 16.7369 22.38C15.4947 22.9155 14.087 23.1932 12.5964 23.1932ZM18.5794 21.4478C18.4759 20.8329 17.8962 17.818 16.4885 14.1287C19.9458 13.5932 22.9269 14.5056 23.1547 14.5849C22.6785 17.4411 20.9809 19.9006 18.5794 21.4478ZM15.8467 12.5221C15.7639 12.3436 15.7018 12.1651 15.619 11.9866C15.3912 11.4907 15.1635 10.9949 14.9151 10.499C19.1384 8.85272 20.8567 6.47255 20.8774 6.45271C22.368 8.19817 23.2789 10.4197 23.3203 12.8593C23.134 12.8197 19.511 12.0659 15.8467 12.5221Z" fill="black"/>
</g>
<defs>
<clipPath id="clip0_104_2">
<rect width="26" height="25" fill="white"/>
</clipPath>
</defs>
</svg>
