<svg width="25" height="26" viewBox="0 0 25 26" fill="none" xmlns="http://www.w3.org/2000/svg">
<g clip-path="url(#clip0_104_6)">
<path d="M18.4229 0.685791H6.77391C3.20229 0.685791 0.290039 3.66044 0.290039 7.29207V18.6249C0.290039 22.2566 3.2206 25.2312 6.77391 25.2312H18.4229C21.9945 25.2312 24.9067 22.2566 24.9067 18.6249V7.29207C24.9067 3.66044 21.9945 0.685791 18.4229 0.685791ZM22.7088 18.4607C22.7088 20.9791 20.6941 23.0413 18.2214 23.0413H6.9937C4.52104 23.0413 2.50628 20.9791 2.50628 18.4607V7.45631C2.50628 4.93789 4.52104 2.87572 6.9937 2.87572H18.2214C20.6941 2.87572 22.7088 4.93789 22.7088 7.45631V18.4607Z" fill="black"/>
<path d="M12.598 6.65356C9.17294 6.65356 6.40723 9.48216 6.40723 12.9495C6.40723 16.435 9.17294 19.2454 12.598 19.2454C16.0231 19.2454 18.7888 16.4168 18.7888 12.9495C18.7888 9.48216 16.0231 6.65356 12.598 6.65356ZM12.598 17.0372C10.4001 17.0372 8.60514 15.2123 8.60514 12.9677C8.60514 10.7231 10.4001 8.89819 12.598 8.89819C14.7959 8.89819 16.5909 10.7231 16.5909 12.9677C16.5909 15.2123 14.7959 17.0372 12.598 17.0372Z" fill="black"/>
<path d="M19.1196 7.74829C19.8884 7.74829 20.5116 7.11104 20.5116 6.32496C20.5116 5.53887 19.8884 4.90161 19.1196 4.90161C18.3508 4.90161 17.7275 5.53887 17.7275 6.32496C17.7275 7.11104 18.3508 7.74829 19.1196 7.74829Z" fill="black"/>
</g>
<defs>
<clipPath id="clip0_104_6">
<rect width="25" height="26" fill="white"/>
</clipPath>
</defs>
</svg>
