<svg width="27" height="26" viewBox="0 0 27 26" fill="none" xmlns="http://www.w3.org/2000/svg">
<g clip-path="url(#clip0_104_10)">
<path d="M0.332875 8.57408H5.95856V25.5036H0.332875V8.57408ZM3.18337 0.41333C1.25794 0.41333 0 1.67739 0 3.33652C0 4.96152 1.22112 6.26233 3.10975 6.26233H3.14563C5.10788 6.26233 6.32987 4.96146 6.32987 3.33652C6.29306 1.67739 5.10794 0.41333 3.18337 0.41333ZM19.7712 8.1764C16.785 8.1764 15.4472 9.8189 14.7009 10.9708V8.57408H9.0735C9.148 10.1623 9.0735 25.5036 9.0735 25.5036H14.7009V16.049C14.7009 15.5426 14.7377 15.0381 14.8857 14.6753C15.2932 13.6645 16.2191 12.6176 17.7721 12.6176C19.8098 12.6176 20.6235 14.1708 20.6235 16.4457V25.5035H26.25V15.7958C26.25 10.5959 23.4749 8.1764 19.7712 8.1764Z" fill="black"/>
</g>
<defs>
<clipPath id="clip0_104_10">
<rect width="27" height="26" fill="white"/>
</clipPath>
</defs>
</svg>
