<svg width="30" height="23" viewBox="0 0 30 23" fill="none" xmlns="http://www.w3.org/2000/svg">
<g clip-path="url(#clip0_104_12)">
<path d="M28.2446 1.36175C27.1214 1.98904 25.9027 2.45951 24.5884 2.70595C23.5369 1.63059 22.0314 0.958496 20.3826 0.958496C17.2043 0.958496 14.6235 3.44526 14.6235 6.5145C14.6235 6.94016 14.6712 7.36583 14.7668 7.76909C9.96359 7.54506 5.70998 5.32713 2.86627 1.96664C2.36444 2.79556 2.07768 3.7365 2.07768 4.76705C2.07768 6.69373 3.10524 8.39639 4.63463 9.38213C3.67876 9.35972 2.79458 9.11328 2.02989 8.68762V8.75483C2.02989 11.4432 4.01331 13.6836 6.66585 14.1988C6.18791 14.3332 5.66219 14.4004 5.13646 14.4004C4.75411 14.4004 4.39566 14.3781 4.06111 14.3108C4.80191 16.5064 6.92871 18.1194 9.46177 18.1642C7.47834 19.6428 4.99308 20.5389 2.29275 20.5389C1.83871 20.5389 1.36078 20.5165 0.906738 20.4717C3.46369 22.04 6.49857 22.9585 9.74852 22.9585C20.3587 22.9585 26.1656 14.5125 26.1656 7.1866C26.1656 6.94016 26.1656 6.69374 26.1417 6.46971C27.2648 5.68559 28.2446 4.72224 29.0093 3.60208C27.9817 4.05014 26.8586 4.34139 25.6876 4.47581C26.8825 3.75891 27.8144 2.66114 28.2446 1.36175Z" fill="black"/>
</g>
<defs>
<clipPath id="clip0_104_12">
<rect width="30" height="23" fill="white"/>
</clipPath>
</defs>
</svg>
